# xmcd CD database file
#
# Track frame offsets:
#	182
#	14591
#	28096
#	41779
#	55666
#	68326
#	80869
#	94242
#	106933
#	119712
#	132025
#	145731
#	165556
#	179993
#	193815
#	206524
#	220083
#	231474
#	244686
#	258335
#	269661
#	283889
#
# Disc length: 3958 seconds
#
# Revision: 0
# Processed by: cddbd v1.4PL0 Copyright (c) Steve Scherf et al.
# Submitted via: CDex 1.50
#
DISCID=580f7416
DTITLE=The Original Memphis Five - Great White Way Blues
DYEAR=1999
DGENRE=Jazz
TTITLE0=Lonesome Mama Blues
TTITLE1=Those Longing for You Blues
TTITLE2=Struttin' at the Strutters' Ball
TTITLE3=I Wish I Could Shimmy Like My Sister Kate
TTITLE4=That Barking Dog (Woof! Woof!)
TTITLE5=Ivy
TTITLE6=Aunt Hagar's Blues
TTITLE7=Loose Feet
TTITLE8=The Great White Way Blues
TTITLE9=Snake Hips
TTITLE10=Tin Roof Blues
TTITLE11=St. Louis Gal
TTITLE12=Sioux City Sue
TTITLE13=Blue Grass Blues
TTITLE14=Bass Ale Blues
TTITLE15=Static Strut
TTITLE16=Tampeekoe
TTITLE17=Lovey Lee
TTITLE18=How Come You Do Me Like You Do?
TTITLE19=Fireworks
TTITLE20=Jazz Me Blues
TTITLE21=Anything
EXTD=YEAR: 1999
EXTT0=
EXTT1=
EXTT2=
EXTT3=
EXTT4=
EXTT5=
EXTT6=
EXTT7=
EXTT8=
EXTT9=
EXTT10=
EXTT11=
EXTT12=
EXTT13=
EXTT14=
EXTT15=
EXTT16=
EXTT17=
EXTT18=
EXTT19=
EXTT20=
EXTT21=
PLAYORDER=
